<?xml version="1.0" ?><!DOCTYPE svg  PUBLIC '-//W3C//DTD SVG 1.1//EN'  'http://www.w3.org/Graphics/SVG/1.1/DTD/svg11.dtd'><svg enable-background="new 0 0 512 512" height="512px" id="Layer_1" version="1.1" viewBox="0 0 512 512" width="512px" xml:space="preserve" xmlns="http://www.w3.org/2000/svg" xmlns:xlink="http://www.w3.org/1999/xlink"><g id="Color-Hexagon"><g id="Instagram_1_"><path d="M448.013,415.413c23.132-13.354,42.058-46.136,42.058-72.846v-86.245L139.265,458.859l74.692,43.124    c23.132,13.354,60.982,13.354,84.114,0L448.013,415.413z" fill="#B28357"/><path d="M490.069,169.431c0-13.254-4.664-28-12.184-41.128L34.491,384.297    c7.608,13.078,18.048,24.49,29.526,31.116l75.484,43.582l350.57-202.401v-87.163H490.069z" fill="#BE9063"/><path d="M448.013,96.587l-74.784-43.178L21.959,256.216v86.353c0,13.458,4.808,28.454,12.534,41.734    l443.393-255.994C470.251,114.979,459.667,103.315,448.013,96.587z" fill="#BE9D7C"/><path d="M373.463,53.545l-75.392-43.528c-21.604-12.474-56.04-13.288-79.34-2.462L59.449,99.517    c-21.004,14.776-37.49,44.986-37.49,69.914v87.055L373.463,53.545z" fill="#C1A88F"/><path d="M448.013,402.845l-149.941,86.569c-23.132,13.354-60.982,13.354-84.114,0L64.015,402.845    C40.883,389.491,21.957,356.709,21.957,330v12.57c0,26.71,18.926,59.49,42.058,72.846l149.941,86.569    c23.132,13.354,60.982,13.354,84.114,0l149.943-86.572c23.132-13.354,42.058-46.136,42.058-72.846V330    C490.069,356.709,471.145,389.489,448.013,402.845z" fill="#937055"/><path d="M325.69,142.427H186.336c-24.206,0-43.9,19.688-43.9,43.894v139.357c0,24.206,19.692,43.894,43.9,43.894    h139.357c24.206,0,43.894-19.688,43.894-43.894V186.316C369.585,162.111,349.897,142.427,325.69,142.427z M304.016,167.833h40.39    v40.39h-40.39V167.833z M223.592,232.684c7.276-10.066,19.078-16.668,32.422-16.668c13.342,0,25.146,6.602,32.412,16.668    c4.734,6.57,7.57,14.606,7.57,23.312c0,22.044-17.952,39.978-39.986,39.978c-22.048,0-39.982-17.934-39.982-39.978    C216.032,247.292,218.86,239.256,223.592,232.684z M347.453,325.674c0,12.01-9.764,21.764-21.764,21.764H186.336    c-12.004,0-21.768-9.754-21.768-21.764v-92.989h33.906c-2.928,7.202-4.572,15.07-4.572,23.312    c0,34.24,27.858,62.116,62.112,62.116c34.25,0,62.108-27.876,62.108-62.116c0-8.242-1.654-16.11-4.582-23.312h33.914    L347.453,325.674L347.453,325.674z" fill="#FFFFFF"/></g></g></svg>